<?xml version="1.0" standalone="yes"?>
<svg xmlns="http://www.w3.org/2000/svg" width="659" height="663">
<path style="fill:#f2f2f4; stroke:none;" d="M0 0L0 663L659 663L659 0L0 0z"/>
<path style="fill:#fed05b; stroke:none;" d="M307.667 13.3333L308.333 13.6667L307.667 13.3333z"/>
<path style="fill:#7a7ea8; stroke:none;" d="M309 13L309 14L317 14L309 13z"/>
<path style="fill:#2d3988; stroke:none;" d="M72 521L73 521C100.096 493.904 131.794 471.741 167 456.424C181.092 450.294 195.426 445.174 210 440.333C215.557 438.488 224.956 437.909 229.436 434.066C233.713 430.397 234.132 420.088 236.9 415C240.269 408.809 246.56 405.343 249.973 399.675C253.851 393.234 253.37 381.416 255.59 374C256.572 370.718 259.141 366.465 258.791 363C258.187 357.026 249.62 349.777 246.152 345C241.533 338.637 238.065 328.757 232.211 323.603C227.813 319.731 218.48 320.266 213 316.638C195.338 304.945 176.001 276.144 184.98 254C186.865 249.352 195.452 238.838 201.363 243.643C209.179 249.998 213.914 266.502 220 275L221 275C219.154 260.397 218.413 247.346 222.721 233C227.932 215.65 239.357 201.055 245.305 184C249.823 171.046 250.061 158.441 249 145L250 145C252.882 151.065 257.185 156.305 262.004 160.961C292.514 190.438 330.254 177.05 364 163L358 175C373.905 172.946 389.202 169.696 405 174.746C451.857 189.726 446.506 253.627 436 291L437 291C446.843 277.257 459.433 260.135 462 243C476.957 244.624 479.944 261.676 477.331 274C473.038 294.242 453.959 324.66 430 322L412.625 349L402.968 363L407.575 379L412.013 399.83L422.363 411L431 435C474.559 440.87 521.409 466.432 556 492.375C568.016 501.387 577.852 513.443 590 522C599.437 506.709 609.873 492.251 617.742 476C636.728 436.787 645.223 396.878 650.286 354C653.19 329.398 650.494 303.323 646.414 279C620.577 124.997 478.063 6.16193 321 13.0394C189.794 18.7845 76.7931 101.35 30.1921 224C12.1312 271.535 7.84619 323.87 13.8449 374C20.0683 426.007 39.9398 479.29 72 521z"/>
<path style="fill:#7a7ea8; stroke:none;" d="M345 13L345 14L353 14L345 13z"/>
<path style="fill:#fed05b; stroke:none;" d="M353 13L353 14L356 14L353 13M296.667 14.3333L297.333 14.6667L296.667 14.3333z"/>
<path style="fill:#7a7ea8; stroke:none;" d="M298 14L298 15L303 15L298 14M359 14L359 15L365 15L359 14z"/>
<path style="fill:#fed05b; stroke:none;" d="M365 14L366 15L365 14M287.667 15.3333L288.333 15.6667L287.667 15.3333z"/>
<path style="fill:#7a7ea8; stroke:none;" d="M289 15L289 16L293 16L289 15M369 15L369 16L373 16L369 15z"/>
<path style="fill:#fed05b; stroke:none;" d="M373.667 15.3333L374.333 15.6667L373.667 15.3333M280.667 16.3333L281.333 16.6667L280.667 16.3333z"/>
<path style="fill:#7a7ea8; stroke:none;" d="M282 16L282 17L285 17L282 16M377 16L377 17L380 17L377 16z"/>
<path style="fill:#fed05b; stroke:none;" d="M380.667 16.3333L381.333 16.6667L380.667 16.3333M275 17L276 18L275 17z"/>
<path style="fill:#7a7ea8; stroke:none;" d="M276 17L276 18L279 18L276 17M383 17L383 18L386 18L383 17z"/>
<path style="fill:#fed05b; stroke:none;" d="M386 17L387 18L386 17M269 18L270 19L269 18z"/>
<path style="fill:#7a7ea8; stroke:none;" d="M270 18L270 19L273 19L270 18M389 18L389 19L392 19L389 18z"/>
<path style="fill:#fed05b; stroke:none;" d="M392 18L393 19L392 18M264.667 19.3333L265.333 19.6667L264.667 19.3333z"/>
<path style="fill:#7a7ea8; stroke:none;" d="M266.667 19.3333L267.333 19.6667L266.667 19.3333M395.667 19.3333L396.333 19.6667L395.667 19.3333z"/>
<path style="fill:#fed05b; stroke:none;" d="M397 19L398 20L397 19M260 20L261 21L260 20z"/>
<path style="fill:#7a7ea8; stroke:none;" d="M261.667 20.3333L262.333 20.6667L261.667 20.3333M399.667 20.3333L400.333 20.6667L399.667 20.3333z"/>
<path style="fill:#fed05b; stroke:none;" d="M401 20L402 21L401 20z"/>
<path style="fill:#7a7ea8; stroke:none;" d="M256 21L256 22L259 22L256 21M404.667 21.3333L405.333 21.6667L404.667 21.3333z"/>
<path style="fill:#fed05b; stroke:none;" d="M406 21L407 22L406 21M251.667 22.3333L252.333 22.6667L251.667 22.3333z"/>
<path style="fill:#7a7ea8; stroke:none;" d="M253 22L254 23L253 22M408.667 22.3333L409.333 22.6667L408.667 22.3333z"/>
<path style="fill:#fed05b; stroke:none;" d="M410 22L411 23L410 22M248 23L249 24L248 23z"/>
<path style="fill:#7a7ea8; stroke:none;" d="M249.667 23.3333L250.333 23.6667L249.667 23.3333M411.667 23.3333L412.333 23.6667L411.667 23.3333z"/>
<path style="fill:#fed05b; stroke:none;" d="M413 23L414 24L413 23M244 24L245 25L244 24z"/>
<path style="fill:#7a7ea8; stroke:none;" d="M245 24L246 25L245 24M416 24L417 25L416 24z"/>
<path style="fill:#fed05b; stroke:none;" d="M417 24L418 25L417 24z"/>
<path style="fill:#7a7ea8; stroke:none;" d="M241.667 25.3333L242.333 25.6667L241.667 25.3333M419.667 25.3333L420.333 25.6667L419.667 25.3333M238.667 26.3333L239.333 26.6667L238.667 26.3333M422.667 26.3333L423.333 26.6667L422.667 26.3333z"/>
<path style="fill:#fed05b; stroke:none;" d="M424 26L425 27L424 26M234 27L235 28L234 27z"/>
<path style="fill:#7a7ea8; stroke:none;" d="M235 27L236 28L235 27M426 27L427 28L426 27z"/>
<path style="fill:#fed05b; stroke:none;" d="M427 27L428 28L427 27M231 28L232 29L231 28z"/>
<path style="fill:#7a7ea8; stroke:none;" d="M232 28L233 29L232 28M429 28L430 29L429 28z"/>
<path style="fill:#fed05b; stroke:none;" d="M430 28L431 29L430 28M228 29L229 30L228 29z"/>
<path style="fill:#7a7ea8; stroke:none;" d="M229 29L230 30L229 29M432 29L433 30L432 29z"/>
<path style="fill:#fed05b; stroke:none;" d="M433 29L434 30L433 29M225 30L226 31L225 30z"/>
<path style="fill:#7a7ea8; stroke:none;" d="M226 30L227 31L226 30M435 30L436 31L435 30z"/>
<path style="fill:#fed05b; stroke:none;" d="M436 30L437 31L436 30M222 31L223 32L222 31z"/>
<path style="fill:#7a7ea8; stroke:none;" d="M223 31L224 32L223 31M438 31L439 32L438 31z"/>
<path style="fill:#fed05b; stroke:none;" d="M439 31L440 32L439 31z"/>
<path style="fill:#7a7ea8; stroke:none;" d="M220.667 32.3333L221.333 32.6667L220.667 32.3333M441 32L442 33L441 32z"/>
<path style="fill:#fed05b; stroke:none;" d="M442 32L443 33L442 32z"/>
<path style="fill:#7a7ea8; stroke:none;" d="M217.667 33.3333L218.333 33.6667L217.667 33.3333M443.667 33.3333L444.333 33.6667L443.667 33.3333z"/>
<path style="fill:#fed05b; stroke:none;" d="M214 34L215 35L214 34z"/>
<path style="fill:#7a7ea8; stroke:none;" d="M215 34L216 35L215 34M446 34L447 35L446 34z"/>
<path style="fill:#fed05b; stroke:none;" d="M447 34L448 35L447 34M212 35L213 36L212 35z"/>
<path style="fill:#7a7ea8; stroke:none;" d="M213 35L214 36L213 35M449 35L450 36L449 35z"/>
<path style="fill:#fed05b; stroke:none;" d="M209 36L210 37L209 36z"/>
<path style="fill:#7a7ea8; stroke:none;" d="M210 36L211 37L210 36M451 36L452 37L451 36z"/>
<path style="fill:#fed05b; stroke:none;" d="M452 36L453 37L452 36M207 37L208 38L207 37z"/>
<path style="fill:#7a7ea8; stroke:none;" d="M208 37L209 38L208 37M454 37L455 38L454 37M205 38L206 39L205 38M456 38L457 39L456 38z"/>
<path style="fill:#fed05b; stroke:none;" d="M457 38L458 39L457 38M202 39L203 40L202 39z"/>
<path style="fill:#7a7ea8; stroke:none;" d="M203 39L204 40L203 39M458 39L459 40L458 39z"/>
<path style="fill:#fed05b; stroke:none;" d="M459 39L460 40L459 39M200 40L201 41L200 40M461 40L462 41L461 40z"/>
<path style="fill:#7a7ea8; stroke:none;" d="M198.667 41.3333L199.333 41.6667L198.667 41.3333M463 41L464 42L463 41M196 42L197 43L196 42M465 42L466 43L465 42z"/>
<path style="fill:#fed05b; stroke:none;" d="M466 42L467 43L466 42M193 43L194 44L193 43z"/>
<path style="fill:#7a7ea8; stroke:none;" d="M194 43L195 44L194 43M467 43L468 44L467 43z"/>
<path style="fill:#fed05b; stroke:none;" d="M468 43L469 44L468 43M191 44L192 45L191 44z"/>
<path style="fill:#7a7ea8; stroke:none;" d="M192 44L193 45L192 44M469 44L470 45L469 44z"/>
<path style="fill:#fed05b; stroke:none;" d="M470 44L471 45L470 44M189 45L190 46L189 45z"/>
<path style="fill:#7a7ea8; stroke:none;" d="M190 45L191 46L190 45M471 45L472 46L471 45z"/>
<path style="fill:#fed05b; stroke:none;" d="M472 45L473 46L472 45M187 46L188 47L187 46z"/>
<path style="fill:#7a7ea8; stroke:none;" d="M188 46L189 47L188 46M473 46L474 47L473 46z"/>
<path style="fill:#fed05b; stroke:none;" d="M474 46L475 47L474 46M185 47L186 48L185 47z"/>
<path style="fill:#7a7ea8; stroke:none;" d="M186 47L187 48L186 47M475 47L476 48L475 47z"/>
<path style="fill:#fed05b; stroke:none;" d="M476 47L477 48L476 47M183 48L184 49L183 48z"/>
<path style="fill:#7a7ea8; stroke:none;" d="M184 48L185 49L184 48M477 48L478 49L477 48z"/>
<path style="fill:#fed05b; stroke:none;" d="M478 48L479 49L478 48z"/>
<path style="fill:#7a7ea8; stroke:none;" d="M182 49L183 50L182 49M479 49L480 50L479 49z"/>
<path style="fill:#fed05b; stroke:none;" d="M480 49L481 50L480 49z"/>
<path style="fill:#7a7ea8; stroke:none;" d="M180 50L181 51L180 50M481 50L482 51L481 50z"/>
<path style="fill:#fed05b; stroke:none;" d="M482 50L483 51L482 50z"/>
<path style="fill:#7a7ea8; stroke:none;" d="M178 51L179 52L178 51M483 51L484 52L483 51z"/>
<path style="fill:#fed05b; stroke:none;" d="M176 52L177 53L176 52z"/>
<path style="fill:#7a7ea8; stroke:none;" d="M485 52L486 53L485 52z"/>
<path style="fill:#fed05b; stroke:none;" d="M174 53L175 54L174 53z"/>
<path style="fill:#7a7ea8; stroke:none;" d="M175 53L176 54L175 53M487 53L488 54L487 53M173 54L174 55L173 54M488 54L489 55L488 54z"/>
<path style="fill:#fed05b; stroke:none;" d="M489 54L490 55L489 54z"/>
<path style="fill:#7a7ea8; stroke:none;" d="M171 55L172 56L171 55M490 55L491 56L490 55z"/>
<path style="fill:#fed05b; stroke:none;" d="M169 56L170 57L169 56z"/>
<path style="fill:#7a7ea8; stroke:none;" d="M492 56L493 57L492 56z"/>
<path style="fill:#fed05b; stroke:none;" d="M167 57L168 58L167 57z"/>
<path style="fill:#7a7ea8; stroke:none;" d="M168 57L169 58L168 57z"/>
<path style="fill:#fed05b; stroke:none;" d="M494 57L495 58L494 57z"/>
<path style="fill:#7a7ea8; stroke:none;" d="M166 58L167 59L166 58M495 58L496 59L495 58z"/>
<path style="fill:#fed05b; stroke:none;" d="M496 58L497 59L496 58z"/>
<path style="fill:#7a7ea8; stroke:none;" d="M164 59L165 60L164 59M497 59L498 60L497 59z"/>
<path style="fill:#fed05b; stroke:none;" d="M162 60L163 61L162 60z"/>
<path style="fill:#7a7ea8; stroke:none;" d="M163 60L164 61L163 60M498 60L499 61L498 60z"/>
<path style="fill:#fed05b; stroke:none;" d="M499 60L500 61L499 60z"/>
<path style="fill:#7a7ea8; stroke:none;" d="M161 61L162 62L161 61M500 61L501 62L500 61z"/>
<path style="fill:#fed05b; stroke:none;" d="M159 62L160 63L159 62z"/>
<path style="fill:#7a7ea8; stroke:none;" d="M502 62L503 63L502 62M158 63L159 64L158 63M503 63L504 64L503 63M156 64L157 65L156 64M505 64L506 65L505 64M155 65L156 66L155 65M506 65L507 66L506 65M153 66L154 67L153 66M508 66L509 67L508 66M152 67L153 68L152 67M509 67L510 68L509 67M150 68L151 69L150 68M511 68L512 69L511 68M149 69L150 70L149 69M512 69L513 70L512 69z"/>
<path style="fill:#fed05b; stroke:none;" d="M147 70L148 71L147 70z"/>
<path style="fill:#7a7ea8; stroke:none;" d="M148 70L149 71L148 70M514 70L515 71L514 70M146 71L147 72L146 71M515 71L516 72L515 71z"/>
<path style="fill:#fed05b; stroke:none;" d="M144 72L145 73L144 72z"/>
<path style="fill:#7a7ea8; stroke:none;" d="M145 72L146 73L145 72z"/>
<path style="fill:#fed05b; stroke:none;" d="M517 72L518 73L517 72M143 73L144 74L143 73z"/>
<path style="fill:#7a7ea8; stroke:none;" d="M518 73L519 74L518 73M142 74L143 75L142 74z"/>
<path style="fill:#fed05b; stroke:none;" d="M520 74L521 75L520 74M140 75L141 76L140 75M521 75L522 76L521 75z"/>
<path style="fill:#7a7ea8; stroke:none;" d="M139 76L140 77L139 76M522 76L523 77L522 76M138 77L139 78L138 77M523 77L524 78L523 77z"/>
<path style="fill:#fed05b; stroke:none;" d="M524 77L525 78L524 77M136 78L137 79L136 78M525 78L526 79L525 78z"/>
<path style="fill:#7a7ea8; stroke:none;" d="M135 79L136 80L135 79M526 79L527 80L526 79M134 80L135 81L134 80M527 80L528 81L527 80z"/>
<path style="fill:#fed05b; stroke:none;" d="M132 81L133 82L132 81z"/>
<path style="fill:#7a7ea8; stroke:none;" d="M133 81L134 82L133 81z"/>
<path style="fill:#fed05b; stroke:none;" d="M529 81L530 82L529 81M131 82L132 83L131 82z"/>
<path style="fill:#7a7ea8; stroke:none;" d="M530 82L531 83L530 82M130 83L131 84L130 83M531 83L532 84L531 83M129 84L130 85L129 84M532 84L533 85L532 84z"/>
<path style="fill:#fed05b; stroke:none;" d="M533 84L534 85L533 84z"/>
<path style="fill:#7a7ea8; stroke:none;" d="M128 85L129 86L128 85z"/>
<path style="fill:#fed05b; stroke:none;" d="M534 85L535 86L534 85M126 86L127 87L126 86z"/>
<path style="fill:#7a7ea8; stroke:none;" d="M535 86L536 87L535 86z"/>
<path style="fill:#fed05b; stroke:none;" d="M125 87L126 88L125 87z"/>
<path style="fill:#7a7ea8; stroke:none;" d="M536 87L537 88L536 87M124 88L125 89L124 88M537 88L538 89L537 88M123 89L124 90L123 89M538 89L539 90L538 89M122 90L123 91L122 90z"/>
<path style="fill:#fed05b; stroke:none;" d="M540 90L541 91L540 90z"/>
<path style="fill:#7a7ea8; stroke:none;" d="M121 91L122 92L121 91z"/>
<path style="fill:#fed05b; stroke:none;" d="M541 91L542 92L541 91M119 92L120 93L119 92z"/>
<path style="fill:#7a7ea8; stroke:none;" d="M542 92L543 93L542 92z"/>
<path style="fill:#fed05b; stroke:none;" d="M118 93L119 94L118 93z"/>
<path style="fill:#7a7ea8; stroke:none;" d="M543 93L544 94L543 93M117 94L118 95L117 94M544 94L545 95L544 94M116 95L117 96L116 95M545 95L546 96L545 95M115 96L116 97L115 96M546 96L547 97L546 96M114 97L115 98L114 97M547 97L548 98L547 97z"/>
<path style="fill:#fed05b; stroke:none;" d="M548 97L549 98L548 97z"/>
<path style="fill:#7a7ea8; stroke:none;" d="M113 98L114 99L113 98z"/>
<path style="fill:#fed05b; stroke:none;" d="M549 98L550 99L549 98z"/>
<path style="fill:#7a7ea8; stroke:none;" d="M112 99L113 100L112 99z"/>
<path style="fill:#fed05b; stroke:none;" d="M550 99L551 100L550 99M110 100L111 101L110 100z"/>
<path style="fill:#7a7ea8; stroke:none;" d="M111 100L112 101L111 100z"/>
<path style="fill:#fed05b; stroke:none;" d="M551 100L552 101L551 100M109 101L110 102L109 101M552 101L553 102L552 101M108 102L109 103L108 102M553 102L554 103L553 102M107 103L108 104L107 103M554 103L555 104L554 103M106 104L107 105L106 104M555 104L556 105L555 104M105 105L106 106L105 105M556 105L557 106L556 105M104 106L105 107L104 106M557 106L558 107L557 106M103 107L104 108L103 107M558 107L559 108L558 107M102 108L103 109L102 108M559 108L560 109L559 108M101 109L102 110L101 109M560 109L561 110L560 109M100 110L101 111L100 110M561 110L562 111L561 110M99 111L100 112L99 111M562 111L563 112L562 111M98 112L99 113L98 112M563 112L564 113L563 112z"/>
<path style="fill:#7a7ea8; stroke:none;" d="M98 113L99 114L98 113z"/>
<path style="fill:#fed05b; stroke:none;" d="M564 113L565 114L564 113z"/>
<path style="fill:#7a7ea8; stroke:none;" d="M97 114L98 115L97 114z"/>
<path style="fill:#fed05b; stroke:none;" d="M565 114L566 115L565 114z"/>
<path style="fill:#7a7ea8; stroke:none;" d="M96 115L97 116L96 115z"/>
<path style="fill:#fed05b; stroke:none;" d="M566 115L567 116L566 115z"/>
<path style="fill:#7a7ea8; stroke:none;" d="M95 116L96 117L95 116M566 116L567 117L566 116M94 117L95 118L94 117M567 117L568 118L567 117M93 118L94 119L93 118M568 118L569 119L568 118M92 119L93 120L92 119M569 119L570 120L569 119z"/>
<path style="fill:#fed05b; stroke:none;" d="M91 120L92 121L91 120z"/>
<path style="fill:#7a7ea8; stroke:none;" d="M570 120L571 121L570 120z"/>
<path style="fill:#fed05b; stroke:none;" d="M90 121L91 122L90 121z"/>
<path style="fill:#7a7ea8; stroke:none;" d="M571 121L572 122L571 121z"/>
<path style="fill:#fed05b; stroke:none;" d="M572 122L573 123L572 122z"/>
<path style="fill:#7a7ea8; stroke:none;" d="M89 123L90 124L89 123z"/>
<path style="fill:#fed05b; stroke:none;" d="M573 123L574 124L573 123z"/>
<path style="fill:#7a7ea8; stroke:none;" d="M88 124L89 125L88 124M87 125L88 126L87 125M574 125L575 126L574 125M86 126L87 127L86 126M575 126L576 127L575 126z"/>
<path style="fill:#fed05b; stroke:none;" d="M85 127L86 128L85 127z"/>
<path style="fill:#7a7ea8; stroke:none;" d="M576 127L577 128L576 127z"/>
<path style="fill:#fed05b; stroke:none;" d="M84 128L85 129L84 128z"/>
<path style="fill:#7a7ea8; stroke:none;" d="M577 128L578 129L577 128z"/>
<path style="fill:#fed05b; stroke:none;" d="M578 129L579 130L578 129z"/>
<path style="fill:#7a7ea8; stroke:none;" d="M83 130L84 131L83 130z"/>
<path style="fill:#fed05b; stroke:none;" d="M579 130L580 131L579 130z"/>
<path style="fill:#7a7ea8; stroke:none;" d="M82 131L83 132L82 131M579 131L580 132L579 131M81 132L82 133L81 132M580 132L581 133L580 132z"/>
<path style="fill:#fed05b; stroke:none;" d="M80 133L81 134L80 133z"/>
<path style="fill:#7a7ea8; stroke:none;" d="M581 133L582 134L581 133z"/>
<path style="fill:#fed05b; stroke:none;" d="M79 134L80 135L79 134M582 134L583 135L582 134z"/>
<path style="fill:#7a7ea8; stroke:none;" d="M79 135L80 136L79 135M78 136L79 137L78 136M583 136L584 137L583 136M77 137L78 138L77 137M584 137L585 138L584 137z"/>
<path style="fill:#fed05b; stroke:none;" d="M76 138L77 139L76 138z"/>
<path style="fill:#7a7ea8; stroke:none;" d="M585 138L586 139L585 138z"/>
<path style="fill:#fed05b; stroke:none;" d="M586 139L587 140L586 139z"/>
<path style="fill:#7a7ea8; stroke:none;" d="M75 140L76 141L75 140M586 140L587 141L586 140M74 141L75 142L74 141M587 141L588 142L587 141z"/>
<path style="fill:#fed05b; stroke:none;" d="M73 142L74 143L73 142M588 142L589 143L588 142M589 143L590 144L589 143z"/>
<path style="fill:#7a7ea8; stroke:none;" d="M72 144L73 145L72 144M589 144L590 145L589 144z"/>
<path style="fill:#fed05b; stroke:none;" d="M71 145L72 146L71 145z"/>
<path style="fill:#7a7ea8; stroke:none;" d="M249 145L249 150L250 150L249 145M590 145L591 146L590 145z"/>
<path style="fill:#fed05b; stroke:none;" d="M70 146L71 147L70 146z"/>
<path style="fill:#7a7ea8; stroke:none;" d="M591 146L592 147L591 146M70 147L71 148L70 147z"/>
<path style="fill:#fed05b; stroke:none;" d="M250 147C250 160.064 249.903 172.586 245.186 185C234.209 213.891 210.821 241.978 222 275C215.07 269.896 210.843 261.504 206.889 254C205.288 250.962 204.312 246.077 201.362 244.029C195.672 240.078 188.142 247.331 185.92 252.001C180.983 262.376 184.371 276.931 188.453 287C193.539 299.545 202.964 311.457 215 317.877C219.965 320.525 227.407 320.318 231.671 323.603C235.694 326.701 237.987 332.799 240.692 337C245.793 344.923 252.502 352.005 257.349 360C260.189 364.684 257.13 369.325 255.721 374C253.09 382.734 250.036 393.835 251.301 403C255.146 430.851 283.013 448.755 306 460.247C313.722 464.107 322.308 469.129 331 470L331 471L327 471L327 472L335 472L335 471L332 471L332 470C340.35 468.562 348.474 464.01 356 460.247C377.9 449.297 405.872 431.555 409.7 405C411.103 395.264 409.249 385.339 406.573 376C405.267 371.446 401.439 365.66 403.821 361C408.309 352.219 416.297 344.473 421.575 336C424.008 332.093 426.372 325.54 430.379 323.028C433.775 320.899 439.159 321.466 443 319.907C451.828 316.323 458.83 309.571 464.36 302C474.34 288.334 490.616 248.344 463 243C457.516 259.209 448.55 280.968 435 292C447.526 258.799 450.077 196.823 413 178.27C394.847 169.186 377.01 174.182 358 175L363 164C354.386 166.481 346.581 171.505 338 174.329C315.079 181.874 290.261 182.123 270 167.572C261.872 161.734 256.795 154.036 250 147z"/>
<path style="fill:#7a7ea8; stroke:none;" d="M69 148L70 149L69 148M251 148L252 149L251 148M592 148L593 149L592 148z"/>
<path style="fill:#fed05b; stroke:none;" d="M68 149L69 150L68 149z"/>
<path style="fill:#7a7ea8; stroke:none;" d="M252 149L253 150L252 149M593 149L594 150L593 149M68 150L69 151L68 150z"/>
<path style="fill:#fed05b; stroke:none;" d="M594 150L595 151L594 150z"/>
<path style="fill:#7a7ea8; stroke:none;" d="M67 151L68 152L67 151M253 151L254 152L253 151M66 152L67 153L66 152M254 152L255 153L254 152M595 152L596 153L595 152z"/>
<path style="fill:#fed05b; stroke:none;" d="M65 153L66 154L65 153z"/>
<path style="fill:#7a7ea8; stroke:none;" d="M255 153L256 154L255 153z"/>
<path style="fill:#fed05b; stroke:none;" d="M596 153L597 154L596 153z"/>
<path style="fill:#7a7ea8; stroke:none;" d="M65 154L66 155L65 154M64 155L65 156L64 155M256 155L257 156L256 155M597 155L598 156L597 155M257 156L258 157L257 156z"/>
<path style="fill:#fed05b; stroke:none;" d="M598 156L599 157L598 156z"/>
<path style="fill:#7a7ea8; stroke:none;" d="M63 157L64 158L63 157M258 157L259 158L258 157M62 158L63 159L62 158M259 158L260 159L259 158M599 158L600 159L599 158M260 159L261 160L260 159z"/>
<path style="fill:#fed05b; stroke:none;" d="M600 159L601 160L600 159z"/>
<path style="fill:#7a7ea8; stroke:none;" d="M61 160L62 161L61 160M261 160L262 161L261 160z"/>
<path style="fill:#fed05b; stroke:none;" d="M60 161L61 162L60 161z"/>
<path style="fill:#7a7ea8; stroke:none;" d="M262 161L263 162L262 161M601 161L602 162L601 161M263 162L264 163L263 162z"/>
<path style="fill:#fed05b; stroke:none;" d="M602 162L603 163L602 162z"/>
<path style="fill:#7a7ea8; stroke:none;" d="M59 163L60 164L59 163M264 163L265 164L264 163M362.667 163.333L363.333 163.667L362.667 163.333M602 163L603 164L602 163z"/>
<path style="fill:#fed05b; stroke:none;" d="M58 164L59 165L58 164z"/>
<path style="fill:#7a7ea8; stroke:none;" d="M249 164L249 168L250 168L249 164M265 164L266 165L265 164M360 164L361 165L360 164M603 164L604 165L603 164M58 165L59 166L58 165M267 165L268 166L267 165M358 165L359 166L358 165M362 165L363 166L362 165M57 166L58 167L57 166M268 166L269 167L268 166M356 166L357 167L356 166M604 166L605 167L604 166M269 167L270 168L269 167M354 167L355 168L354 167M361 167L362 168L361 167z"/>
<path style="fill:#fed05b; stroke:none;" d="M605 167L606 168L605 167z"/>
<path style="fill:#7a7ea8; stroke:none;" d="M56 168L57 169L56 168M271 168L272 169L271 168M352 168L353 169L352 168M605 168L606 169L605 168z"/>
<path style="fill:#fed05b; stroke:none;" d="M55 169L56 170L55 169z"/>
<path style="fill:#7a7ea8; stroke:none;" d="M272 169L273 170L272 169M349.667 169.333L350.333 169.667L349.667 169.333M360 169L361 170L360 169z"/>
<path style="fill:#fed05b; stroke:none;" d="M606 169L607 170L606 169z"/>
<path style="fill:#7a7ea8; stroke:none;" d="M55 170L56 171L55 170M274 170L275 171L274 170M347.667 170.333L348.333 170.667L347.667 170.333z"/>
<path style="fill:#fed05b; stroke:none;" d="M54 171L55 172L54 171z"/>
<path style="fill:#7a7ea8; stroke:none;" d="M248 171L248 174L249 174L248 171M275.667 171.333L276.333 171.667L275.667 171.333M345 171L346 172L345 171M359 171L360 172L359 171M607 171L608 172L607 171M277.667 172.333L278.333 172.667L277.667 172.333M342.667 172.333L343.333 172.667L342.667 172.333M373 172L373 173L382 173L373 172M388 172L388 173L396 173L388 172z"/>
<path style="fill:#fed05b; stroke:none;" d="M608 172L609 173L608 172z"/>
<path style="fill:#7a7ea8; stroke:none;" d="M53 173L54 174L53 173M279.667 173.333L280.333 173.667L279.667 173.333M339.667 173.333L340.333 173.667L339.667 173.333M358 173L359 174L358 173M366 173L366 174L369 174L366 173M398 173L398 174L401 174L398 173M608 173L609 174L608 173M281.667 174.333L282.333 174.667L281.667 174.333M336.667 174.333L337.333 174.667L336.667 174.333M361 174L361 175L364 175L361 174M403.667 174.333L404.333 174.667L403.667 174.333z"/>
<path style="fill:#fed05b; stroke:none;" d="M609 174L610 175L609 174z"/>
<path style="fill:#7a7ea8; stroke:none;" d="M52 175L53 176L52 175M284.667 175.333L285.333 175.667L284.667 175.333M333.667 175.333L334.333 175.667L333.667 175.333M406.667 175.333L407.333 175.667L406.667 175.333z"/>
<path style="fill:#fed05b; stroke:none;" d="M51 176L52 177L51 176z"/>
<path style="fill:#7a7ea8; stroke:none;" d="M247.333 176.667L247.667 177.333L247.333 176.667M287.667 176.333L288.333 176.667L287.667 176.333M329.667 176.333L330.333 176.667L329.667 176.333M409 176L410 177L409 176M610 176L611 177L610 176M51 177L52 178L51 177M290 177L290 178L293 178L290 177M324 177L324 178L327 178L324 177M411.667 177.333L412.333 177.667L411.667 177.333z"/>
<path style="fill:#fed05b; stroke:none;" d="M50 178L51 179L50 178z"/>
<path style="fill:#7a7ea8; stroke:none;" d="M295 178L295 179L299 179L295 178M318 178L318 179L322 179L318 178M413.667 178.333L414.333 178.667L413.667 178.333M611 178L612 179L611 178M303 179L303 180L313 180L303 179M415 179L416 180L415 179z"/>
<path style="fill:#fed05b; stroke:none;" d="M612 179L613 180L612 179z"/>
<path style="fill:#7a7ea8; stroke:none;" d="M49 180L50 181L49 180M246.333 180.667L246.667 181.333L246.333 180.667M417 180L418 181L417 180M612 180L613 181L612 180M418 181L419 182L418 181z"/>
<path style="fill:#fed05b; stroke:none;" d="M613 181L614 182L613 181z"/>
<path style="fill:#7a7ea8; stroke:none;" d="M48 182L49 183L48 182M420 182L421 183L420 182M613 182L614 183L613 182M245.333 183.667L245.667 184.333L245.333 183.667M421 183L422 184L421 183z"/>
<path style="fill:#fed05b; stroke:none;" d="M614 183L615 184L614 183z"/>
<path style="fill:#7a7ea8; stroke:none;" d="M47 184L48 185L47 184M422 184L423 185L422 184M614 184L615 185L614 184z"/>
<path style="fill:#fed05b; stroke:none;" d="M46 185L47 186L46 185z"/>
<path style="fill:#7a7ea8; stroke:none;" d="M423 185L424 186L423 185M615.333 185.667L615.667 186.333L615.333 185.667M46 186L47 187L46 186M244 186L245 187L244 186M424 186L425 187L424 186z"/>
<path style="fill:#fed05b; stroke:none;" d="M45 187L46 188L45 187z"/>
<path style="fill:#7a7ea8; stroke:none;" d="M425 187L426 188L425 187M616.333 187.667L616.667 188.333L616.333 187.667M45 188L46 189L45 188M243.333 188.667L243.667 189.333L243.333 188.667M426 188L427 189L426 188z"/>
<path style="fill:#fed05b; stroke:none;" d="M44 189L45 190L44 189z"/>
<path style="fill:#7a7ea8; stroke:none;" d="M427 189L428 190L427 189M617.333 189.667L617.667 190.333L617.333 189.667M44 190L45 191L44 190M428 190L429 191L428 190z"/>
<path style="fill:#fed05b; stroke:none;" d="M43 191L44 192L43 191z"/>
<path style="fill:#7a7ea8; stroke:none;" d="M242 191L243 192L242 191M429 191L430 192L429 191M618.333 191.667L618.667 192.333L618.333 191.667M43 192L44 193L43 192z"/>
<path style="fill:#fed05b; stroke:none;" d="M42 193L43 194L42 193z"/>
<path style="fill:#7a7ea8; stroke:none;" d="M241 193L242 194L241 193M430 193L431 194L430 193M619.333 193.667L619.667 194.333L619.333 193.667M42 194L43 195L42 194M431 194L432 195L431 194z"/>
<path style="fill:#fed05b; stroke:none;" d="M41 195L42 196L41 195z"/>
<path style="fill:#7a7ea8; stroke:none;" d="M240 195L241 196L240 195z"/>
<path style="fill:#fed05b; stroke:none;" d="M620 195L621 196L620 195z"/>
<path style="fill:#7a7ea8; stroke:none;" d="M41 196L42 197L41 196M432 196L433 197L432 196M620 196L621 197L620 196M239 197L240 198L239 197M433.333 197.667L433.667 198.333L433.333 197.667z"/>
<path style="fill:#fed05b; stroke:none;" d="M621 197L622 198L621 197z"/>
<path style="fill:#7a7ea8; stroke:none;" d="M40 198L41 199L40 198M621 198L622 199L621 198M238 199L239 200L238 199M434.333 199.667L434.667 200.333L434.333 199.667z"/>
<path style="fill:#fed05b; stroke:none;" d="M622 199L623 200L622 199z"/>
<path style="fill:#7a7ea8; stroke:none;" d="M39.3333 200.667L39.6667 201.333L39.3333 200.667M622 200L623 201L622 200M237 201L238 202L237 201M435.333 201.667L435.667 202.333L435.333 201.667z"/>
<path style="fill:#fed05b; stroke:none;" d="M38 202L39 203L38 202z"/>
<path style="fill:#7a7ea8; stroke:none;" d="M623 202L624 203L623 202M236 203L237 204L236 203z"/>
<path style="fill:#fed05b; stroke:none;" d="M37 204L38 205L37 204z"/>
<path style="fill:#7a7ea8; stroke:none;" d="M436 204L437 205L436 204M624 204L625 205L624 204M37 205L38 206L37 205M235 205L236 206L235 205M437.333 206.667L437.667 207.333L437.333 206.667z"/>
<path style="fill:#fed05b; stroke:none;" d="M625 206L626 207L625 206z"/>
<path style="fill:#7a7ea8; stroke:none;" d="M36 207L37 208L36 207M234 207L235 208L234 207M625 207L626 208L625 207M233.333 208.667L233.667 209.333L233.333 208.667z"/>
<path style="fill:#fed05b; stroke:none;" d="M35 209L36 210L35 209z"/>
<path style="fill:#7a7ea8; stroke:none;" d="M438.333 209.667L438.667 210.333L438.333 209.667M626 209L627 210L626 209M35 210L36 211L35 210M232.333 210.667L232.667 211.333L232.333 210.667z"/>
<path style="fill:#fed05b; stroke:none;" d="M34 211L35 212L34 211M627 211L628 212L627 211z"/>
<path style="fill:#7a7ea8; stroke:none;" d="M34 212L35 213L34 212M231.333 212.667L231.667 213.333L231.333 212.667M439 212L439 215L440 215L439 212z"/>
<path style="fill:#fed05b; stroke:none;" d="M628 213L629 214L628 213z"/>
<path style="fill:#7a7ea8; stroke:none;" d="M33.3333 214.667L33.6667 215.333L33.3333 214.667M230 214L231 215L230 214M628 214L629 215L628 214z"/>
<path style="fill:#fed05b; stroke:none;" d="M32 216L33 217L32 216z"/>
<path style="fill:#7a7ea8; stroke:none;" d="M229 216L230 217L229 216M629.333 216.667L629.667 217.333L629.333 216.667M32 217L33 218L32 217M440 217L440 220L441 220L440 217M228 218L229 219L228 218z"/>
<path style="fill:#fed05b; stroke:none;" d="M630 218L631 219L630 218z"/>
<path style="fill:#7a7ea8; stroke:none;" d="M31.3333 219.667L31.6667 220.333L31.3333 219.667M630 219L631 220L630 219M227.333 220.667L227.667 221.333L227.333 220.667z"/>
<path style="fill:#fed05b; stroke:none;" d="M631 221L632 222L631 221z"/>
<path style="fill:#7a7ea8; stroke:none;" d="M30.3333 222.667L30.6667 223.333L30.3333 222.667M631 222L632 223L631 222M226 223L227 224L226 223M441 223L441 226L442 226L441 223z"/>
<path style="fill:#fed05b; stroke:none;" d="M29 224L30 225L29 224M632 224L633 225L632 224z"/>
<path style="fill:#7a7ea8; stroke:none;" d="M29 225L30 226L29 225M225 225L226 226L225 225M632 225L633 226L632 225z"/>
<path style="fill:#fed05b; stroke:none;" d="M633 226L634 227L633 226M28 227L29 228L28 227z"/>
<path style="fill:#7a7ea8; stroke:none;" d="M224.333 227.667L224.667 228.333L224.333 227.667M633.333 227.667L633.667 228.333L633.333 227.667M28 228L29 229L28 228z"/>
<path style="fill:#fed05b; stroke:none;" d="M634 229L635 230L634 229M27 230L28 231L27 230z"/>
<path style="fill:#7a7ea8; stroke:none;" d="M223.333 230.667L223.667 231.333L223.333 230.667M442 230L442 253L443 253L442 230M634.333 230.667L634.667 231.333L634.333 230.667M27 231L28 232L27 231z"/>
<path style="fill:#fed05b; stroke:none;" d="M635 232L636 233L635 232M26 233L27 234L26 233z"/>
<path style="fill:#7a7ea8; stroke:none;" d="M222.333 233.667L222.667 234.333L222.333 233.667M635.333 233.667L635.667 234.333L635.333 233.667M26 234L27 235L26 234z"/>
<path style="fill:#fed05b; stroke:none;" d="M636 235L637 236L636 235M25 236L26 237L25 236z"/>
<path style="fill:#7a7ea8; stroke:none;" d="M636.333 236.667L636.667 237.333L636.333 236.667M25 237L26 238L25 237M221 237L221 240L222 240L221 237M637.333 239.667L637.667 240.333L637.333 239.667M24.3333 240.667L24.6667 241.333L24.3333 240.667M197 242L197 243L202 243L197 242M220 242L220 245L221 245L220 242z"/>
<path style="fill:#fed05b; stroke:none;" d="M638 242L639 243L638 242z"/>
<path style="fill:#7a7ea8; stroke:none;" d="M23.3333 243.667L23.6667 244.333L23.3333 243.667M194 243L195 244L194 243M462.333 243.667L462.667 244.333L462.333 243.667M466 243L467 244L466 243M638 243L639 244L638 243M192 244L193 245L192 244M202 244L203 245L202 244M468 244L469 245L468 244M469 245L470 246L469 245z"/>
<path style="fill:#fed05b; stroke:none;" d="M22 246L23 247L22 246z"/>
<path style="fill:#7a7ea8; stroke:none;" d="M189 246L190 247L189 246M203 246L204 247L203 246M461.333 246.667L461.667 247.333L461.333 246.667M471 246L472 247L471 246M639.333 246.667L639.667 247.333L639.333 246.667M22.3333 247.667L22.6667 248.333L22.3333 247.667M188 247L189 248L188 247M472 247L473 248L472 247M204 248L205 249L204 248M219 248L219 264L220 264L219 248M473 248L474 249L473 248M460 249L461 250L460 249z"/>
<path style="fill:#fed05b; stroke:none;" d="M640 249L641 250L640 249M21 250L22 251L21 250z"/>
<path style="fill:#7a7ea8; stroke:none;" d="M186 250L187 251L186 250M205.333 250.667L205.667 251.333L205.333 250.667M474 250L475 251L474 250M640.333 250.667L640.667 251.333L640.333 250.667M21.3333 251.667L21.6667 252.333L21.3333 251.667M459.333 251.667L459.667 252.333L459.333 251.667M475 251L476 252L475 251M185 252L186 253L185 252M206.333 252.667L206.667 253.333L206.333 252.667z"/>
<path style="fill:#fed05b; stroke:none;" d="M20.3333 253.667L20.6667 254.333L20.3333 253.667M641 253L642 254L641 253z"/>
<path style="fill:#7a7ea8; stroke:none;" d="M184.333 254.667L184.667 255.333L184.333 254.667M207.333 254.667L207.667 255.333L207.333 254.667M458 254L459 255L458 254M476 254L477 255L476 254M641.333 254.667L641.667 255.333L641.333 254.667M20 255L21 256L20 255M208 256L209 257L208 256M457 256L458 257L457 256M477.333 257.667L477.667 258.333L477.333 257.667z"/>
<path style="fill:#fed05b; stroke:none;" d="M642 257L643 258L642 257z"/>
<path style="fill:#7a7ea8; stroke:none;" d="M19 258L19 261L20 261L19 258M209 258L210 259L209 258M441 258L441 262L442 262L441 258M456.333 258.667L456.667 259.333L456.333 258.667M642.333 258.667L642.667 259.333L642.333 258.667M183 259L183 271L184 271L183 259M210 260L211 261L210 260M455.333 260.667L455.667 261.333L455.333 260.667z"/>
<path style="fill:#fed05b; stroke:none;" d="M643 261L644 262L643 261M18 262L19 263L18 262z"/>
<path style="fill:#7a7ea8; stroke:none;" d="M211 262L212 263L211 262M454.333 262.667L454.667 263.333L454.333 262.667M643.333 262.667L643.667 263.333L643.333 262.667M18.3333 263.667L18.6667 264.333L18.3333 263.667M212 263L213 264L212 263M453.333 264.667L453.667 265.333L453.333 264.667M213 265L214 266L213 265z"/>
<path style="fill:#fed05b; stroke:none;" d="M644.333 265.667L644.667 266.333L644.333 265.667M17.3333 266.667L17.6667 267.333L17.3333 266.667z"/>
<path style="fill:#7a7ea8; stroke:none;" d="M440 266L440 270L441 270L440 266M452 266L453 267L452 266M214 267L215 268L214 267M644.333 267.667L644.667 268.333L644.333 267.667M17.3333 268.667L17.6667 269.333L17.3333 268.667M215 268L216 269L215 268M451 268L452 269L451 268M220 269L220 272L221 272L220 269M450 270L451 271L450 270z"/>
<path style="fill:#fed05b; stroke:none;" d="M645.333 270.667L645.667 271.333L645.333 270.667M16 271L17 272L16 271z"/>
<path style="fill:#7a7ea8; stroke:none;" d="M217 271L218 272L217 271M16 272L16 275L17 275L16 272M218 272L219 273L218 272M449 272L450 273L449 272M477.333 272.667L477.667 273.333L477.333 272.667M645.333 272.667L645.667 273.333L645.333 272.667M439 273L439 276L440 276L439 273M448.333 273.667L448.667 274.333L448.333 273.667M184.333 274.667L184.667 275.333L184.333 274.667M221 274L222 275L221 274M447 275L448 276L447 275M476.333 276.667L476.667 277.333L476.333 276.667z"/>
<path style="fill:#fed05b; stroke:none;" d="M646 276L647 277L646 276M15 277L16 278L15 277z"/>
<path style="fill:#7a7ea8; stroke:none;" d="M446 277L447 278L446 277M646 277L646 280L647 280L646 277M15 278L15 281L16 281L15 278M185.333 278.667L185.667 279.333L185.333 278.667M438 278L438 281L439 281L438 278M445 278L446 279L445 278M444 280L445 281L444 280M475 280L476 281L475 280M186.333 281.667L186.667 282.333L186.333 281.667M443 281L444 282L443 281z"/>
<path style="fill:#fed05b; stroke:none;" d="M647.333 281.667L647.667 282.333L647.333 281.667M14.3333 282.667L14.6667 283.333L14.3333 282.667z"/>
<path style="fill:#7a7ea8; stroke:none;" d="M437 283L437 286L438 286L437 283M442 283L443 284L442 283M474 283L475 284L474 283M647 283L647 286L648 286L647 283M14 284L14 287L15 287L14 284M187 284L188 285L187 284M441 284L442 285L441 284M440 286L441 287L440 286M473 286L474 287L473 286M188 287L189 288L188 287M436 287L436 290L437 290L436 287M439 287L440 288L439 287M438 288L439 289L438 288M472 288L473 289L472 288z"/>
<path style="fill:#fed05b; stroke:none;" d="M648.333 288.667L648.667 289.333L648.333 288.667M13.3333 289.667L13.6667 290.333L13.3333 289.667z"/>
<path style="fill:#7a7ea8; stroke:none;" d="M189 289L190 290L189 289M437 290L438 291L437 290M471 290L472 291L471 290M648 290L648 294L649 294L648 290M13 291L13 295L14 295L13 291M190 291L191 292L190 291M435.667 291.333L436.333 291.667L435.667 291.333M470 292L471 293L470 292M191 293L192 294L191 293M469 294L470 295L469 294M468 295L469 296L468 295M193 296L194 297L193 296z"/>
<path style="fill:#fed05b; stroke:none;" d="M649.333 296.667L649.667 297.333L649.333 296.667z"/>
<path style="fill:#7a7ea8; stroke:none;" d="M467 297L468 298L467 297z"/>
<path style="fill:#fed05b; stroke:none;" d="M12.3333 298.667L12.6667 299.333L12.3333 298.667z"/>
<path style="fill:#7a7ea8; stroke:none;" d="M194 298L195 299L194 298M649 298L649 302L650 302L649 298M195 299L196 300L195 299M12 300L12 305L13 305L12 300M465 300L466 301L465 300M464 301L465 302L464 301M197 302L198 303L197 302M198 303L199 304L198 303M462 304L463 305L462 304M461 305L462 306L461 305z"/>
<path style="fill:#fed05b; stroke:none;" d="M650.333 306.667L650.667 307.333L650.333 306.667z"/>
<path style="fill:#7a7ea8; stroke:none;" d="M202 308L203 309L202 308M650 308L650 315L651 315L650 308z"/>
<path style="fill:#fed05b; stroke:none;" d="M11.3333 309.667L11.6667 310.333L11.3333 309.667z"/>
<path style="fill:#7a7ea8; stroke:none;" d="M204 310L205 311L204 310M11 311L11 319L12 319L11 311M454 312L455 313L454 312M208 313L209 314L208 313M453 313L454 314L453 313M209 314L210 315L209 314M452 314L453 315L452 314M212 316L213 317L212 316M449 316L450 317L449 316M214 317L215 318L214 317M447 317L448 318L447 317M215 318L216 319L215 318M446 318L447 319L446 318M217.667 319.333L218.333 319.667L217.667 319.333M444 319L445 320L444 319M220 320L221 321L220 320M441 320L442 321L441 320M223.667 321.333L224.333 321.667L223.667 321.333M438.667 321.333L439.333 321.667L438.667 321.333M429 322L430 323L429 322M431 322L431 323L434 323L431 322M232 323L233 324L232 323M428 324L429 325L428 324M234 326L235 327L234 326M427 326L428 327L427 326M426 327L427 328L426 327M235 328L236 329L235 328M425 329L426 330L425 329M236 330L237 331L236 330M237 331L238 332L237 331M424 331L425 332L424 331M423 332L424 333L423 332M238 333L239 334L238 333M422 334L423 335L422 334M240 336L241 337L240 336M421 336L422 337L421 336M420 337L421 338L420 337M241 338L242 339L241 338M242 339L243 340L242 339M419 339L420 340L419 339M418 340L419 341L418 340M243 341L244 342L243 341M244 342L245 343L244 342M417 342L418 343L417 342M416 343L417 344L416 343M245 344L246 345L245 344M246 345L247 346L246 345M415 345L416 346L415 345M414 346L415 347L414 346M11 347L11 355L12 355L11 347M248 348L249 349L248 348M249 349L250 350L249 349M412 349L413 350L412 349M411 350L412 351L411 350M251 352L252 353L251 352M650 352L650 358L651 358L650 352M252 353L253 354L252 353M409 353L410 354L409 353M408 354L409 355L408 354z"/>
<path style="fill:#fed05b; stroke:none;" d="M11 355L11 358L12 358L11 355z"/>
<path style="fill:#7a7ea8; stroke:none;" d="M255 357L256 358L255 357M256 358L257 359L256 358M405 358L406 359L405 358z"/>
<path style="fill:#fed05b; stroke:none;" d="M650.333 358.667L650.667 359.333L650.333 358.667z"/>
<path style="fill:#7a7ea8; stroke:none;" d="M257 359L258 360L257 359M404 359L405 360L404 359M403 360L404 361L403 360M12 361L12 367L13 367L12 361M259 363L260 364L259 363M402 364L403 365L402 364M649 364L649 369L650 369L649 364M258.333 365.667L258.667 366.333L258.333 365.667M403.333 366.667L403.667 367.333L403.333 366.667z"/>
<path style="fill:#fed05b; stroke:none;" d="M12 367L13 368L12 367z"/>
<path style="fill:#7a7ea8; stroke:none;" d="M257 368L258 369L257 368M404 369L405 370L404 369z"/>
<path style="fill:#fed05b; stroke:none;" d="M649 369L650 370L649 369z"/>
<path style="fill:#7a7ea8; stroke:none;" d="M256.333 370.667L256.667 371.333L256.333 370.667M13 371L13 375L14 375L13 371M405.333 371.667L405.667 372.333L405.333 371.667M648 373L648 376L649 376L648 373M255 374L256 375L255 374z"/>
<path style="fill:#fed05b; stroke:none;" d="M13.3333 375.667L13.6667 376.333L13.3333 375.667z"/>
<path style="fill:#7a7ea8; stroke:none;" d="M406 375L407 376L406 375z"/>
<path style="fill:#fed05b; stroke:none;" d="M648.333 376.667L648.667 377.333L648.333 376.667z"/>
<path style="fill:#7a7ea8; stroke:none;" d="M254.333 377.667L254.667 378.333L254.333 377.667M407.333 378.667L407.667 379.333L407.333 378.667M14 379L14 382L15 382L14 379M647 380L647 383L648 383L647 380M253.333 381.667L253.667 382.333L253.333 381.667z"/>
<path style="fill:#fed05b; stroke:none;" d="M14.3333 382.667L14.6667 383.333L14.3333 382.667z"/>
<path style="fill:#7a7ea8; stroke:none;" d="M408.333 382.667L408.667 383.333L408.333 382.667z"/>
<path style="fill:#fed05b; stroke:none;" d="M647.333 383.667L647.667 384.333L647.333 383.667z"/>
<path style="fill:#7a7ea8; stroke:none;" d="M15 385L15 388L16 388L15 385M252.333 386.667L252.667 387.333L252.333 386.667M646 386L646 389L647 389L646 386M409.333 387.667L409.667 388.333L409.333 387.667z"/>
<path style="fill:#fed05b; stroke:none;" d="M15 388L16 389L15 388M646 389L647 390L646 389z"/>
<path style="fill:#7a7ea8; stroke:none;" d="M16 391L16 394L17 394L16 391M251 392L251 396L252 396L251 392M645 392L645 395L646 395L645 392z"/>
<path style="fill:#fed05b; stroke:none;" d="M16 394L17 395L16 394z"/>
<path style="fill:#7a7ea8; stroke:none;" d="M410 394L410 400L411 400L410 394z"/>
<path style="fill:#fed05b; stroke:none;" d="M645 395L646 396L645 395z"/>
<path style="fill:#7a7ea8; stroke:none;" d="M17.3333 397.667L17.6667 398.333L17.3333 397.667M644.333 397.667L644.667 398.333L644.333 397.667z"/>
<path style="fill:#fed05b; stroke:none;" d="M17 399L18 400L17 399M644.333 399.667L644.667 400.333L644.333 399.667z"/>
<path style="fill:#7a7ea8; stroke:none;" d="M250 400L251 401L250 400M411 400L412 401L411 400M18.3333 401.667L18.6667 402.333L18.3333 401.667M248 401L249 402L248 401M414 402L415 403L414 402M643.333 402.667L643.667 403.333L643.333 402.667z"/>
<path style="fill:#fed05b; stroke:none;" d="M18 403L19 404L18 403z"/>
<path style="fill:#7a7ea8; stroke:none;" d="M245 403L246 404L245 403M244 404L245 405L244 404z"/>
<path style="fill:#fed05b; stroke:none;" d="M643 404L644 405L643 404z"/>
<path style="fill:#7a7ea8; stroke:none;" d="M243 405L244 406L243 405M19.3333 406.667L19.6667 407.333L19.3333 406.667M242 406L243 407L242 406M642 406L642 409L643 409L642 406M241 407L242 408L241 407z"/>
<path style="fill:#fed05b; stroke:none;" d="M19 408L20 409L19 408z"/>
<path style="fill:#7a7ea8; stroke:none;" d="M420 408L421 409L420 408M421 409L422 410L421 409z"/>
<path style="fill:#fed05b; stroke:none;" d="M642 409L643 410L642 409z"/>
<path style="fill:#7a7ea8; stroke:none;" d="M20.3333 410.667L20.6667 411.333L20.3333 410.667M239 410L240 411L239 410M422 410L423 411L422 410M641.333 410.667L641.667 411.333L641.333 410.667z"/>
<path style="fill:#fed05b; stroke:none;" d="M20 412L21 413L20 412z"/>
<path style="fill:#7a7ea8; stroke:none;" d="M423 412L424 413L423 412z"/>
<path style="fill:#fed05b; stroke:none;" d="M641.333 412.667L641.667 413.333L641.333 412.667z"/>
<path style="fill:#7a7ea8; stroke:none;" d="M21.3333 413.667L21.6667 414.333L21.3333 413.667M237 413L238 414L237 413M424 414L425 415L424 414z"/>
<path style="fill:#fed05b; stroke:none;" d="M21 415L22 416L21 415z"/>
<path style="fill:#7a7ea8; stroke:none;" d="M236 415L237 416L236 415M640 415L641 416L640 415M425 416L426 417L425 416z"/>
<path style="fill:#fed05b; stroke:none;" d="M640 416L641 417L640 416z"/>
<path style="fill:#7a7ea8; stroke:none;" d="M235 417L236 418L235 417M22 418L23 419L22 418M426 418L427 419L426 418M639.333 418.667L639.667 419.333L639.333 418.667z"/>
<path style="fill:#fed05b; stroke:none;" d="M22 419L23 420L22 419z"/>
<path style="fill:#7a7ea8; stroke:none;" d="M234 420L235 421L234 420M427 420L428 421L427 420z"/>
<path style="fill:#fed05b; stroke:none;" d="M639 420L640 421L639 420z"/>
<path style="fill:#7a7ea8; stroke:none;" d="M23.3333 421.667L23.6667 422.333L23.3333 421.667M233.333 422.667L233.667 423.333L233.333 422.667M638 422L639 423L638 422M428.333 423.667L428.667 424.333L428.333 423.667z"/>
<path style="fill:#fed05b; stroke:none;" d="M638 423L639 424L638 423z"/>
<path style="fill:#7a7ea8; stroke:none;" d="M24.3333 424.667L24.6667 425.333L24.3333 424.667M637.333 425.667L637.667 426.333L637.333 425.667z"/>
<path style="fill:#fed05b; stroke:none;" d="M24 426L25 427L24 426z"/>
<path style="fill:#7a7ea8; stroke:none;" d="M232 426L233 427L232 426M429.333 427.667L429.667 428.333L429.333 427.667z"/>
<path style="fill:#fed05b; stroke:none;" d="M637 427L638 428L637 427z"/>
<path style="fill:#7a7ea8; stroke:none;" d="M25 428L26 429L25 428M636.333 428.667L636.667 429.333L636.333 428.667z"/>
<path style="fill:#fed05b; stroke:none;" d="M25 429L26 430L25 429z"/>
<path style="fill:#7a7ea8; stroke:none;" d="M231 430L231 433L232 433L231 430z"/>
<path style="fill:#fed05b; stroke:none;" d="M636 430L637 431L636 430z"/>
<path style="fill:#7a7ea8; stroke:none;" d="M26 431L27 432L26 431M635.333 431.667L635.667 432.333L635.333 431.667z"/>
<path style="fill:#fed05b; stroke:none;" d="M26 432L27 433L26 432z"/>
<path style="fill:#7a7ea8; stroke:none;" d="M430.333 432.667L430.667 433.333L430.333 432.667z"/>
<path style="fill:#fed05b; stroke:none;" d="M635 433L636 434L635 433z"/>
<path style="fill:#7a7ea8; stroke:none;" d="M27 434L28 435L27 434M230 434L231 435L230 434M634.333 434.667L634.667 435.333L634.333 434.667z"/>
<path style="fill:#fed05b; stroke:none;" d="M27 435L28 436L27 435z"/>
<path style="fill:#7a7ea8; stroke:none;" d="M226.667 435.333L227.333 435.667L226.667 435.333M433.667 435.333L434.333 435.667L433.667 435.333M223 436L224 437L223 436M437.667 436.333L438.333 436.667L437.667 436.333z"/>
<path style="fill:#fed05b; stroke:none;" d="M634 436L635 437L634 436z"/>
<path style="fill:#7a7ea8; stroke:none;" d="M28 437L29 438L28 437M219.667 437.333L220.333 437.667L219.667 437.333M440.667 437.333L441.333 437.667L440.667 437.333M633.333 437.667L633.667 438.333L633.333 437.667z"/>
<path style="fill:#fed05b; stroke:none;" d="M28 438L29 439L28 438z"/>
<path style="fill:#7a7ea8; stroke:none;" d="M215.667 438.333L216.333 438.667L215.667 438.333M444.667 438.333L445.333 438.667L444.667 438.333M212.667 439.333L213.333 439.667L212.667 439.333M447.667 439.333L448.333 439.667L447.667 439.333z"/>
<path style="fill:#fed05b; stroke:none;" d="M633 439L634 440L633 439z"/>
<path style="fill:#7a7ea8; stroke:none;" d="M29 440L30 441L29 440M209 440L210 441L209 440M451.667 440.333L452.333 440.667L451.667 440.333M632.333 440.667L632.667 441.333L632.333 440.667z"/>
<path style="fill:#fed05b; stroke:none;" d="M29 441L30 442L29 441z"/>
<path style="fill:#7a7ea8; stroke:none;" d="M206 441L207 442L206 441M454.667 441.333L455.333 441.667L454.667 441.333M203 442L204 443L203 442M457.667 442.333L458.333 442.667L457.667 442.333z"/>
<path style="fill:#fed05b; stroke:none;" d="M632 442L633 443L632 442z"/>
<path style="fill:#7a7ea8; stroke:none;" d="M30 443L31 444L30 443M200 443L201 444L200 443M460.667 443.333L461.333 443.667L460.667 443.333M631 443L632 444L631 443z"/>
<path style="fill:#fed05b; stroke:none;" d="M30 444L31 445L30 444z"/>
<path style="fill:#7a7ea8; stroke:none;" d="M197 444L198 445L197 444M463.667 444.333L464.333 444.667L463.667 444.333z"/>
<path style="fill:#fed05b; stroke:none;" d="M631 444L632 445L631 444z"/>
<path style="fill:#7a7ea8; stroke:none;" d="M31.3333 445.667L31.6667 446.333L31.3333 445.667M194 445L195 446L194 445M466.667 445.333L467.333 445.667L466.667 445.333M191 446L192 447L191 446M469 446L470 447L469 446M630 446L631 447L630 446M188.667 447.333L189.333 447.667L188.667 447.333M472 447L473 448L472 447z"/>
<path style="fill:#fed05b; stroke:none;" d="M630 447L631 448L630 447z"/>
<path style="fill:#7a7ea8; stroke:none;" d="M32 448L33 449L32 448M186 448L187 449L186 448M474 448L475 449L474 448z"/>
<path style="fill:#fed05b; stroke:none;" d="M32 449L33 450L32 449z"/>
<path style="fill:#7a7ea8; stroke:none;" d="M183 449L184 450L183 449M477 449L478 450L477 449M629 449L630 450L629 449M181 450L182 451L181 450M479.667 450.333L480.333 450.667L479.667 450.333M33 451L34 452L33 451M178 451L179 452L178 451M482 451L483 452L482 451M628 451L629 452L628 451M176 452L177 453L176 452M485 452L486 453L485 452z"/>
<path style="fill:#fed05b; stroke:none;" d="M628 452L629 453L628 452z"/>
<path style="fill:#7a7ea8; stroke:none;" d="M34 453L35 454L34 453M173.667 453.333L174.333 453.667L173.667 453.333M487 453L488 454L487 453z"/>
<path style="fill:#fed05b; stroke:none;" d="M34 454L35 455L34 454z"/>
<path style="fill:#7a7ea8; stroke:none;" d="M171 454L172 455L171 454M489 454L490 455L489 454M627 454L628 455L627 454M169 455L170 456L169 455M492 455L493 456L492 455M35 456L36 457L35 456M166 456L167 457L166 456M494 456L495 457L494 456M626 456L627 457L626 456M164 457L165 458L164 457M496 457L497 458L496 457z"/>
<path style="fill:#fed05b; stroke:none;" d="M626 457L627 458L626 457z"/>
<path style="fill:#7a7ea8; stroke:none;" d="M36 458L37 459L36 458M162 458L163 459L162 458M499 458L500 459L499 458M625.333 458.667L625.667 459.333L625.333 458.667z"/>
<path style="fill:#fed05b; stroke:none;" d="M36 459L37 460L36 459z"/>
<path style="fill:#7a7ea8; stroke:none;" d="M160 459L161 460L160 459M501 459L502 460L501 459M37 460L38 461L37 460M158 460L159 461L158 460M503 460L504 461L503 460z"/>
<path style="fill:#fed05b; stroke:none;" d="M37 461L38 462L37 461z"/>
<path style="fill:#7a7ea8; stroke:none;" d="M156 461L157 462L156 461M505 461L506 462L505 461M624 461L625 462L624 461M154 462L155 463L154 462M507 462L508 463L507 462z"/>
<path style="fill:#fed05b; stroke:none;" d="M38 463L39 464L38 463z"/>
<path style="fill:#7a7ea8; stroke:none;" d="M152 463L153 464L152 463M509 463L510 464L509 463M623 463L624 464L623 463M150 464L151 465L150 464M511 464L512 465L511 464z"/>
<path style="fill:#fed05b; stroke:none;" d="M623 464L624 465L623 464z"/>
<path style="fill:#7a7ea8; stroke:none;" d="M39 465L40 466L39 465M148 465L149 466L148 465M513 465L514 466L513 465M622 465L623 466L622 465M146 466L147 467L146 466M515 466L516 467L515 466z"/>
<path style="fill:#fed05b; stroke:none;" d="M622 466L623 467L622 466z"/>
<path style="fill:#7a7ea8; stroke:none;" d="M40 467L41 468L40 467M144 467L145 468L144 467M517 467L518 468L517 467M621.333 467.667L621.667 468.333L621.333 467.667z"/>
<path style="fill:#fed05b; stroke:none;" d="M40 468L41 469L40 468z"/>
<path style="fill:#7a7ea8; stroke:none;" d="M142 468L143 469L142 468M519 468L520 469L519 468M41 469L42 470L41 469M140 469L141 470L140 469M520 469L521 470L520 469M620.333 469.667L620.667 470.333L620.333 469.667z"/>
<path style="fill:#fed05b; stroke:none;" d="M41 470L42 471L41 470z"/>
<path style="fill:#7a7ea8; stroke:none;" d="M522 470L523 471L522 470M42 471L43 472L42 471M137 471L138 472L137 471M524 471L525 472L524 471z"/>
<path style="fill:#fed05b; stroke:none;" d="M42 472L43 473L42 472z"/>
<path style="fill:#7a7ea8; stroke:none;" d="M135 472L136 473L135 472z"/>
<path style="fill:#fed05b; stroke:none;" d="M321 472L322 473L321 472z"/>
<path style="fill:#fa6c54; stroke:none;" d="M322 472.428C313.489 473.647 305.142 475.95 297 478.667C294.499 479.501 289.632 480.267 288.816 483.278C287.921 486.583 291.351 491.196 292.753 494C296.861 502.217 303.89 511.511 302.841 521.015C299.386 552.328 295.186 583.833 290.573 615C289.341 623.318 288.157 631.647 287.155 640C286.853 642.518 285.453 647.163 287.067 649.397C289.574 652.866 302.867 652.27 307 652.711C326.25 654.762 354.339 656.228 373.022 650.602C378.388 648.986 375.289 638.884 374.729 635C372.333 618.375 370.157 601.678 368.155 585C366.192 568.649 363.803 552.351 361.845 536C361.067 529.506 358.522 521.486 359.48 515C360.616 507.306 366.801 498.917 370.247 492C371.486 489.513 374.45 485.359 372.867 482.499C370.917 478.976 363.529 477.86 360 476.86C347.732 473.382 334.799 470.595 322 472.428z"/>
<path style="fill:#fed05b; stroke:none;" d="M340.667 472.333L341.333 472.667L340.667 472.333z"/>
<path style="fill:#7a7ea8; stroke:none;" d="M526 472L527 473L526 472M619 472L620 473L619 472M43 473L44 474L43 473M133 473L134 474L133 473z"/>
<path style="fill:#fed05b; stroke:none;" d="M315 473L316 474L315 473M346 473L347 474L346 473z"/>
<path style="fill:#7a7ea8; stroke:none;" d="M527 473L528 474L527 473z"/>
<path style="fill:#fed05b; stroke:none;" d="M43 474L44 475L43 474z"/>
<path style="fill:#7a7ea8; stroke:none;" d="M132 474L133 475L132 474z"/>
<path style="fill:#fed05b; stroke:none;" d="M311 474L312 475L311 474M350.667 474.333L351.333 474.667L350.667 474.333z"/>
<path style="fill:#7a7ea8; stroke:none;" d="M529 474L530 475L529 474M618 474L619 475L618 474M44 475L45 476L44 475M130 475L131 476L130 475z"/>
<path style="fill:#fed05b; stroke:none;" d="M307 475L308 476L307 475z"/>
<path style="fill:#7a7ea8; stroke:none;" d="M531 475L532 476L531 475z"/>
<path style="fill:#fed05b; stroke:none;" d="M44 476L45 477L44 476z"/>
<path style="fill:#7a7ea8; stroke:none;" d="M128 476L129 477L128 476z"/>
<path style="fill:#fed05b; stroke:none;" d="M303 476L304 477L303 476M358 476L359 477L358 476z"/>
<path style="fill:#7a7ea8; stroke:none;" d="M532 476L533 477L532 476M617 476L618 477L617 476M45 477L46 478L45 477M127 477L128 478L127 477z"/>
<path style="fill:#fed05b; stroke:none;" d="M300 477L301 478L300 477M362 477L363 478L362 477z"/>
<path style="fill:#7a7ea8; stroke:none;" d="M534 477L535 478L534 477z"/>
<path style="fill:#fed05b; stroke:none;" d="M45 478L46 479L45 478z"/>
<path style="fill:#7a7ea8; stroke:none;" d="M125 478L126 479L125 478z"/>
<path style="fill:#fed05b; stroke:none;" d="M297 478L298 479L297 478z"/>
<path style="fill:#7a7ea8; stroke:none;" d="M616 478L617 479L616 478M46 479L47 480L46 479M123 479L124 480L123 479z"/>
<path style="fill:#fed05b; stroke:none;" d="M294 479L295 480L294 479z"/>
<path style="fill:#7a7ea8; stroke:none;" d="M537 479L538 480L537 479z"/>
<path style="fill:#fed05b; stroke:none;" d="M46 480L47 481L46 480z"/>
<path style="fill:#7a7ea8; stroke:none;" d="M122 480L123 481L122 480z"/>
<path style="fill:#fed05b; stroke:none;" d="M291 480L292 481L291 480M370 480L371 481L370 480z"/>
<path style="fill:#7a7ea8; stroke:none;" d="M539 480L540 481L539 480M615 480L616 481L615 480M47 481L48 482L47 481M120 481L121 482L120 481M540 481L541 482L540 481z"/>
<path style="fill:#fed05b; stroke:none;" d="M47 482L48 483L47 482z"/>
<path style="fill:#7a7ea8; stroke:none;" d="M119 482L120 483L119 482z"/>
<path style="fill:#fed05b; stroke:none;" d="M287.333 482.667L287.667 483.333L287.333 482.667M374 482L375 483L374 482z"/>
<path style="fill:#7a7ea8; stroke:none;" d="M542 482L543 483L542 482M614 482L615 483L614 482M48 483L49 484L48 483M117 483L118 484L117 483M543 483L544 484L543 483z"/>
<path style="fill:#fed05b; stroke:none;" d="M48 484L49 485L48 484z"/>
<path style="fill:#7a7ea8; stroke:none;" d="M116 484L117 485L116 484M545 484L546 485L545 484z"/>
<path style="fill:#fed05b; stroke:none;" d="M613 484L614 485L613 484z"/>
<path style="fill:#7a7ea8; stroke:none;" d="M49 485L50 486L49 485M114 485L115 486L114 485z"/>
<path style="fill:#fed05b; stroke:none;" d="M288 485L289 486L288 485z"/>
<path style="fill:#7a7ea8; stroke:none;" d="M546 485L547 486L546 485M612 485L613 486L612 485M113 486L114 487L113 486z"/>
<path style="fill:#fed05b; stroke:none;" d="M612 486L613 487L612 486z"/>
<path style="fill:#7a7ea8; stroke:none;" d="M50 487L51 488L50 487M112 487L113 488L112 487z"/>
<path style="fill:#fed05b; stroke:none;" d="M289 487L290 488L289 487z"/>
<path style="fill:#7a7ea8; stroke:none;" d="M549 487L550 488L549 487M611 487L612 488L611 487M51.3333 488.667L51.6667 489.333L51.3333 488.667M110 488L111 489L110 488z"/>
<path style="fill:#fed05b; stroke:none;" d="M611 488L612 489L611 488z"/>
<path style="fill:#7a7ea8; stroke:none;" d="M109 489L110 490L109 489z"/>
<path style="fill:#fed05b; stroke:none;" d="M290 489L291 490L290 489z"/>
<path style="fill:#7a7ea8; stroke:none;" d="M552 489L553 490L552 489M610 489L611 490L610 489M52 490L53 491L52 490M553 490L554 491L553 490z"/>
<path style="fill:#fed05b; stroke:none;" d="M52 491L53 492L52 491z"/>
<path style="fill:#7a7ea8; stroke:none;" d="M106 491L107 492L106 491z"/>
<path style="fill:#fed05b; stroke:none;" d="M291 491L292 492L291 491z"/>
<path style="fill:#7a7ea8; stroke:none;" d="M609 491L610 492L609 491M53 492L54 493L53 492M105 492L106 493L105 492M556 492L557 493L556 492M103 493L104 494L103 493z"/>
<path style="fill:#fed05b; stroke:none;" d="M292 493L293 494L292 493z"/>
<path style="fill:#7a7ea8; stroke:none;" d="M557 493L558 494L557 493z"/>
<path style="fill:#fed05b; stroke:none;" d="M608 493L609 494L608 493z"/>
<path style="fill:#7a7ea8; stroke:none;" d="M54 494L55 495L54 494M102 494L103 495L102 494M607 494L608 495L607 494M101 495L102 496L101 495z"/>
<path style="fill:#fed05b; stroke:none;" d="M293 495L294 496L293 495z"/>
<path style="fill:#7a7ea8; stroke:none;" d="M560 495L561 496L560 495z"/>
<path style="fill:#fed05b; stroke:none;" d="M55 496L56 497L55 496z"/>
<path style="fill:#7a7ea8; stroke:none;" d="M561 496L562 497L561 496M606 496L607 497L606 496M56 497L57 498L56 497z"/>
<path style="fill:#fed05b; stroke:none;" d="M294 497L295 498L294 497z"/>
<path style="fill:#7a7ea8; stroke:none;" d="M562 497L563 498L562 497z"/>
<path style="fill:#fed05b; stroke:none;" d="M56 498L57 499L56 498z"/>
<path style="fill:#7a7ea8; stroke:none;" d="M97 498L98 499L97 498M605 498L606 499L605 498M57 499L58 500L57 499M96 499L97 500L96 499z"/>
<path style="fill:#fed05b; stroke:none;" d="M295 499L296 500L295 499z"/>
<path style="fill:#7a7ea8; stroke:none;" d="M565 499L566 500L565 499M604 499L605 500L604 499M58 500L59 501L58 500M95 500L96 501L95 500M566 500L567 501L566 500z"/>
<path style="fill:#fed05b; stroke:none;" d="M58 501L59 502L58 501M296 501L297 502L296 501z"/>
<path style="fill:#7a7ea8; stroke:none;" d="M567 501L568 502L567 501M603 501L604 502L603 501M59 502L60 503L59 502M92 502L93 503L92 502M568 502L569 503L568 502z"/>
<path style="fill:#fed05b; stroke:none;" d="M59 503L60 504L59 503z"/>
<path style="fill:#7a7ea8; stroke:none;" d="M91 503L92 504L91 503z"/>
<path style="fill:#fed05b; stroke:none;" d="M297 503L298 504L297 503M602 503L603 504L602 503z"/>
<path style="fill:#7a7ea8; stroke:none;" d="M60 504L61 505L60 504M90 504L91 505L90 504M601 504L602 505L601 504M61 505L62 506L61 505M89 505L90 506L89 505z"/>
<path style="fill:#fed05b; stroke:none;" d="M298 505L299 506L298 505z"/>
<path style="fill:#7a7ea8; stroke:none;" d="M572 505L573 506L572 505M88 506L89 507L88 506M573 506L574 507L573 506z"/>
<path style="fill:#fed05b; stroke:none;" d="M600 506L601 507L600 506z"/>
<path style="fill:#7a7ea8; stroke:none;" d="M62 507L63 508L62 507z"/>
<path style="fill:#fed05b; stroke:none;" d="M299 507L300 508L299 507z"/>
<path style="fill:#7a7ea8; stroke:none;" d="M574 507L575 508L574 507M599 507L600 508L599 507M63 508L64 509L63 508M575 508L576 509L575 508z"/>
<path style="fill:#fed05b; stroke:none;" d="M300 509L301 510L300 509z"/>
<path style="fill:#7a7ea8; stroke:none;" d="M576 509L577 510L576 509z"/>
<path style="fill:#fed05b; stroke:none;" d="M598 509L599 510L598 509z"/>
<path style="fill:#7a7ea8; stroke:none;" d="M64 510L65 511L64 510M83 510L84 511L83 510M577 510L578 511L577 510M597 510L598 511L597 510M65 511L66 512L65 511M82 511L83 512L82 511z"/>
<path style="fill:#fed05b; stroke:none;" d="M301 511L302 512L301 511z"/>
<path style="fill:#7a7ea8; stroke:none;" d="M578 511L579 512L578 511z"/>
<path style="fill:#fed05b; stroke:none;" d="M65 512L66 513L65 512z"/>
<path style="fill:#7a7ea8; stroke:none;" d="M81 512L82 513L81 512z"/>
<path style="fill:#fed05b; stroke:none;" d="M596 512L597 513L596 512z"/>
<path style="fill:#7a7ea8; stroke:none;" d="M66 513L67 514L66 513M80 513L81 514L80 513z"/>
<path style="fill:#fed05b; stroke:none;" d="M302 513L303 514L302 513z"/>
<path style="fill:#7a7ea8; stroke:none;" d="M595 513L596 514L595 513M67 514L68 515L67 514M79 514L80 515L79 514M78 515L79 516L78 515z"/>
<path style="fill:#fed05b; stroke:none;" d="M303 515L304 516L303 515M594 515L595 516L594 515z"/>
<path style="fill:#7a7ea8; stroke:none;" d="M68 516L69 517L68 516M77 516L78 517L77 516z"/>
<path style="fill:#fed05b; stroke:none;" d="M359 516L359 519L360 519L359 516z"/>
<path style="fill:#7a7ea8; stroke:none;" d="M593 516L594 517L593 516M69 517L70 518L69 517M76 517L77 518L76 517M75 518L76 519L75 518z"/>
<path style="fill:#fed05b; stroke:none;" d="M592 518L593 519L592 518M70 519L71 520L70 519z"/>
<path style="fill:#7a7ea8; stroke:none;" d="M74 519L75 520L74 519M591 519L592 520L591 519M71 520L72 521L71 520M73 520L74 521L73 520M590 520L591 521L590 520M72 521L73 522L72 521z"/>
<path style="fill:#fed05b; stroke:none;" d="M302 521L302 524L303 524L302 521z"/>
<path style="fill:#7a7ea8; stroke:none;" d="M588 521L587 525L588 525L588 521z"/>
<path style="fill:#fed05b; stroke:none;" d="M590 521L591 522L590 521M589 522L590 523L589 522M360 525L361 526L360 525z"/>
<path style="fill:#7a7ea8; stroke:none;" d="M586 525L585 528L586 528L586 525z"/>
<path style="fill:#fed05b; stroke:none;" d="M586 526L587 527L586 526z"/>
<path style="fill:#7a7ea8; stroke:none;" d="M584 528L581 533L582 533L584 528M78 529L79 530L78 529z"/>
<path style="fill:#fed05b; stroke:none;" d="M301 529L302 530L301 529M584 529L585 530L584 529M583 530L584 531L583 530M301 531L302 532L301 531M361.333 532.667L361.667 533.333L361.333 532.667z"/>
<path style="fill:#7a7ea8; stroke:none;" d="M580 533L581 534L580 533M579 534L577 538L578 538L579 534z"/>
<path style="fill:#fed05b; stroke:none;" d="M579 535L580 536L579 535M300.333 537.667L300.667 538.333L300.333 537.667z"/>
<path style="fill:#7a7ea8; stroke:none;" d="M576 538L577 539L576 538z"/>
<path style="fill:#fed05b; stroke:none;" d="M362 539L362 542L363 542L362 539z"/>
<path style="fill:#7a7ea8; stroke:none;" d="M575 539L576 540L575 539M87 540L88 541L87 540M574 540L571 545L572 545L574 540z"/>
<path style="fill:#fed05b; stroke:none;" d="M574 541L575 542L574 541M573 542L574 543L573 542M89 543L90 544L89 543M299.333 544.667L299.667 545.333L299.333 544.667z"/>
<path style="fill:#7a7ea8; stroke:none;" d="M570 545L571 546L570 545M569 546L570 547L569 546M93 547L95 549L93 547z"/>
<path style="fill:#fed05b; stroke:none;" d="M363.333 547.667L363.667 548.333L363.333 547.667z"/>
<path style="fill:#7a7ea8; stroke:none;" d="M568 547L545 571C552.361 565.876 565.841 556.05 568 547z"/>
<path style="fill:#fed05b; stroke:none;" d="M568 548L569 549L568 548M567 549L568 550L567 549M566 550L567 551L566 550M96 551L100 555L96 551M565 551L566 552L565 551M298 552L299 553L298 552M564 552L565 553L564 552M563 553L564 554L563 553M364.333 555.667L364.667 556.333L364.333 555.667M297.333 560.667L297.667 561.333L297.333 560.667M365 562L365 565L366 565L365 562M109 564L113 568L109 564M551 565L552 566L551 565M550 566L551 567L550 566M296.333 567.667L296.667 568.333L296.333 567.667M549 567L550 568L549 567z"/>
<path style="fill:#7a7ea8; stroke:none;" d="M114 568L116 570L114 568z"/>
<path style="fill:#fed05b; stroke:none;" d="M548 568L549 569L548 568M547 569L548 570L547 569M366.333 570.667L366.667 571.333L366.333 570.667M546 570L547 571L546 570z"/>
<path style="fill:#7a7ea8; stroke:none;" d="M544 571L545 572L544 571M543 572L544 573L543 572M538 577L543 574L538 577z"/>
<path style="fill:#fed05b; stroke:none;" d="M120 574L121 575L120 574M295 574L295 577L296 577L295 574M540 575L541 576L540 575z"/>
<path style="fill:#7a7ea8; stroke:none;" d="M123 576L124 577L123 576z"/>
<path style="fill:#fed05b; stroke:none;" d="M539 576L540 577L539 576z"/>
<path style="fill:#7a7ea8; stroke:none;" d="M537 577L538 578L537 577z"/>
<path style="fill:#fed05b; stroke:none;" d="M367.333 578.667L367.667 579.333L367.333 578.667z"/>
<path style="fill:#7a7ea8; stroke:none;" d="M536 578L537 579L536 578M532 582L536 580L532 582z"/>
<path style="fill:#fed05b; stroke:none;" d="M533 581L534 582L533 581z"/>
<path style="fill:#7a7ea8; stroke:none;" d="M130 582L131 583L130 582z"/>
<path style="fill:#fed05b; stroke:none;" d="M294 582L294 585L295 585L294 582z"/>
<path style="fill:#7a7ea8; stroke:none;" d="M531 582L532 583L531 582M526 587L531 584L526 587M134 585L135 586L134 585z"/>
<path style="fill:#fed05b; stroke:none;" d="M368 585L368 588L369 588L368 585M528 585L529 586L528 585M527 586L528 587L527 586z"/>
<path style="fill:#7a7ea8; stroke:none;" d="M523 589L526 588L523 589M138 588L139 589L138 588z"/>
<path style="fill:#fed05b; stroke:none;" d="M524 588L525 589L524 588z"/>
<path style="fill:#7a7ea8; stroke:none;" d="M522 589L523 590L522 589z"/>
<path style="fill:#fed05b; stroke:none;" d="M293 590L293 593L294 593L293 590z"/>
<path style="fill:#7a7ea8; stroke:none;" d="M518 593L522 591L518 593z"/>
<path style="fill:#fed05b; stroke:none;" d="M141 591L142 592L141 591M520 591L521 592L520 591M519 592L520 593L519 592M369.333 593.667L369.667 594.333L369.333 593.667z"/>
<path style="fill:#7a7ea8; stroke:none;" d="M515 595L518 594L515 595M146 594L147 595L146 594z"/>
<path style="fill:#fed05b; stroke:none;" d="M516 594L517 595L516 594z"/>
<path style="fill:#7a7ea8; stroke:none;" d="M512 597L515 596L512 597z"/>
<path style="fill:#fed05b; stroke:none;" d="M513 596L514 597L513 596M292 597L292 600L293 600L292 597z"/>
<path style="fill:#7a7ea8; stroke:none;" d="M509 599L512 598L509 599z"/>
<path style="fill:#fed05b; stroke:none;" d="M510 598L511 599L510 598z"/>
<path style="fill:#7a7ea8; stroke:none;" d="M506 601L509 600L506 601z"/>
<path style="fill:#fed05b; stroke:none;" d="M507 600L508 601L507 600M370 601L370 604L371 604L370 601z"/>
<path style="fill:#7a7ea8; stroke:none;" d="M503 603L506 602L503 603z"/>
<path style="fill:#fed05b; stroke:none;" d="M157 602L158 603L157 602M504 602L505 603L504 602z"/>
<path style="fill:#7a7ea8; stroke:none;" d="M500 605L503 604L500 605M161 604L162 605L161 604z"/>
<path style="fill:#fed05b; stroke:none;" d="M501 604L502 605L501 604z"/>
<path style="fill:#7a7ea8; stroke:none;" d="M498.667 605.333L499.333 605.667L498.667 605.333z"/>
<path style="fill:#fed05b; stroke:none;" d="M291.333 606.667L291.667 607.333L291.333 606.667z"/>
<path style="fill:#7a7ea8; stroke:none;" d="M495 608L498 607L495 608z"/>
<path style="fill:#fed05b; stroke:none;" d="M165 607L166 608L165 607z"/>
<path style="fill:#7a7ea8; stroke:none;" d="M166 607L167 608L166 607z"/>
<path style="fill:#fed05b; stroke:none;" d="M496 607L497 608L496 607M371 608L371 611L372 611L371 608z"/>
<path style="fill:#7a7ea8; stroke:none;" d="M493.667 608.333L494.333 608.667L493.667 608.333M490 611L493 610L490 611M171 610L172 611L171 610z"/>
<path style="fill:#fed05b; stroke:none;" d="M491 610L492 611L491 610z"/>
<path style="fill:#7a7ea8; stroke:none;" d="M488.667 611.333L489.333 611.667L488.667 611.333M481 615L481 616L488 613L481 615z"/>
<path style="fill:#fed05b; stroke:none;" d="M290 613L290 616L291 616L290 613M486 613L487 614L486 613M484 614L485 615L484 614z"/>
<path style="fill:#7a7ea8; stroke:none;" d="M180 615L181 616L180 615z"/>
<path style="fill:#fed05b; stroke:none;" d="M482 615L483 616L482 615z"/>
<path style="fill:#7a7ea8; stroke:none;" d="M182 616L183 617L182 616z"/>
<path style="fill:#fed05b; stroke:none;" d="M372.333 616.667L372.667 617.333L372.333 616.667z"/>
<path style="fill:#7a7ea8; stroke:none;" d="M479 616L480 617L479 616z"/>
<path style="fill:#fed05b; stroke:none;" d="M480 616L481 617L480 616z"/>
<path style="fill:#7a7ea8; stroke:none;" d="M184 617L185 618L184 617M477.667 617.333L478.333 617.667L477.667 617.333M186 618L187 619L186 618M475.667 618.333L476.333 618.667L475.667 618.333M473.667 619.333L474.333 619.667L473.667 619.333M190 620L191 621L190 620z"/>
<path style="fill:#fed05b; stroke:none;" d="M289.333 620.667L289.667 621.333L289.333 620.667z"/>
<path style="fill:#7a7ea8; stroke:none;" d="M471.667 620.333L472.333 620.667L471.667 620.333M192 621L193 622L192 621M469.667 621.333L470.333 621.667L469.667 621.333M194 622L195 623L194 622M467 622L468 623L467 622z"/>
<path style="fill:#fed05b; stroke:none;" d="M468 622L469 623L468 622M373 623L373 627L374 627L373 623z"/>
<path style="fill:#7a7ea8; stroke:none;" d="M464.667 623.333L465.333 623.667L464.667 623.333z"/>
<path style="fill:#fed05b; stroke:none;" d="M466 623L467 624L466 623z"/>
<path style="fill:#7a7ea8; stroke:none;" d="M462 624L460 625L460 626L462 624z"/>
<path style="fill:#fed05b; stroke:none;" d="M464 624L465 625L464 624M462 625L463 626L462 625z"/>
<path style="fill:#7a7ea8; stroke:none;" d="M458 626L459 627L458 626z"/>
<path style="fill:#fed05b; stroke:none;" d="M459 626L460 627L459 626M204 627L205 628L204 627z"/>
<path style="fill:#7a7ea8; stroke:none;" d="M205 627L206 628L205 627M456 627L457 628L456 627z"/>
<path style="fill:#fed05b; stroke:none;" d="M457 627L458 628L457 627M288 628L288 631L289 631L288 628z"/>
<path style="fill:#7a7ea8; stroke:none;" d="M453.667 628.333L454.333 628.667L453.667 628.333z"/>
<path style="fill:#fed05b; stroke:none;" d="M455 628L456 629L455 628z"/>
<path style="fill:#7a7ea8; stroke:none;" d="M210 629L211 630L210 629M451.667 629.333L452.333 629.667L451.667 629.333z"/>
<path style="fill:#fed05b; stroke:none;" d="M211 630L212 631L211 630z"/>
<path style="fill:#7a7ea8; stroke:none;" d="M448.667 630.333L449.333 630.667L448.667 630.333z"/>
<path style="fill:#fed05b; stroke:none;" d="M450 630L451 631L450 630z"/>
<path style="fill:#7a7ea8; stroke:none;" d="M215 631L216 632L215 631M446.667 631.333L447.333 631.667L446.667 631.333z"/>
<path style="fill:#fed05b; stroke:none;" d="M374.333 632.667L374.667 633.333L374.333 632.667z"/>
<path style="fill:#7a7ea8; stroke:none;" d="M443 632L444 633L443 632z"/>
<path style="fill:#fed05b; stroke:none;" d="M445 632L446 633L445 632M219 633L220 634L219 633z"/>
<path style="fill:#7a7ea8; stroke:none;" d="M440.667 633.333L441.333 633.667L440.667 633.333z"/>
<path style="fill:#fed05b; stroke:none;" d="M442 633L443 634L442 633z"/>
<path style="fill:#7a7ea8; stroke:none;" d="M223 634L224 635L223 634M438.667 634.333L439.333 634.667L438.667 634.333z"/>
<path style="fill:#fed05b; stroke:none;" d="M224 635L225 636L224 635z"/>
<path style="fill:#7a7ea8; stroke:none;" d="M226 635L227 636L226 635M435 635L436 636L435 635z"/>
<path style="fill:#fed05b; stroke:none;" d="M437 635L438 636L437 635M287.333 636.667L287.667 637.333L287.333 636.667z"/>
<path style="fill:#7a7ea8; stroke:none;" d="M432 636L433 637L432 636M232 637L233 638L232 637M429 637L430 638L429 637z"/>
<path style="fill:#fed05b; stroke:none;" d="M233 638L234 639L233 638z"/>
<path style="fill:#7a7ea8; stroke:none;" d="M235 638L236 639L235 638M426 638L427 639L426 638z"/>
<path style="fill:#fed05b; stroke:none;" d="M428 638L429 639L428 638M375.333 639.667L375.667 640.333L375.333 639.667z"/>
<path style="fill:#7a7ea8; stroke:none;" d="M422 639L422 640L425 640L422 639M419 640L420 641L419 640z"/>
<path style="fill:#fed05b; stroke:none;" d="M421 640L422 641L421 640z"/>
<path style="fill:#7a7ea8; stroke:none;" d="M245.667 641.333L246.333 641.667L245.667 641.333M415 641L416 642L415 641M417 641L418 642L417 641z"/>
<path style="fill:#fed05b; stroke:none;" d="M418 641L419 642L418 641z"/>
<path style="fill:#7a7ea8; stroke:none;" d="M249 642L250 643L249 642M411.667 642.333L412.333 642.667L411.667 642.333z"/>
<path style="fill:#fed05b; stroke:none;" d="M414 642L415 643L414 642z"/>
<path style="fill:#7a7ea8; stroke:none;" d="M253 643L254 644L253 643M408 643L409 644L408 643z"/>
<path style="fill:#fed05b; stroke:none;" d="M410.667 643.333L411.333 643.667L410.667 643.333z"/>
<path style="fill:#7a7ea8; stroke:none;" d="M257 644L258 645L257 644z"/>
<path style="fill:#fed05b; stroke:none;" d="M286.333 644.667L286.667 645.333L286.333 644.667z"/>
<path style="fill:#7a7ea8; stroke:none;" d="M403.667 644.333L404.333 644.667L403.667 644.333z"/>
<path style="fill:#fed05b; stroke:none;" d="M406.667 644.333L407.333 644.667L406.667 644.333z"/>
<path style="fill:#7a7ea8; stroke:none;" d="M261 645L262 646L261 645M399 645L400 646L399 645z"/>
<path style="fill:#fed05b; stroke:none;" d="M263 646L264 647L263 646z"/>
<path style="fill:#7a7ea8; stroke:none;" d="M266 646L267 647L266 646z"/>
<path style="fill:#fed05b; stroke:none;" d="M376 646L376 651L377 651L376 646z"/>
<path style="fill:#7a7ea8; stroke:none;" d="M394.667 646.333L395.333 646.667L394.667 646.333z"/>
<path style="fill:#fed05b; stroke:none;" d="M398 646L399 647L398 646z"/>
<path style="fill:#7a7ea8; stroke:none;" d="M271 647L272 648L271 647M389 647L390 648L389 647z"/>
<path style="fill:#fed05b; stroke:none;" d="M392.667 647.333L393.333 647.667L392.667 647.333M274 648L275 649L274 648z"/>
<path style="fill:#7a7ea8; stroke:none;" d="M276.667 648.333L277.333 648.667L276.667 648.333M383.667 648.333L384.333 648.667L383.667 648.333z"/>
<path style="fill:#fed05b; stroke:none;" d="M387 648L388 649L387 648M279 649L280 650L279 649z"/>
<path style="fill:#7a7ea8; stroke:none;" d="M283 649L284 650L283 649M377.667 649.333L378.333 649.667L377.667 649.333z"/>
<path style="fill:#fed05b; stroke:none;" d="M381.667 649.333L382.333 649.667L381.667 649.333M286 650L287 651L286 650M370 650L371 651L370 650M295.667 651.333L296.333 651.667L295.667 651.333M365.667 651.333L366.333 651.667L365.667 651.333M313 652L313 653L317 653L313 652M346 652L346 653L349 653L346 652z"/>
</svg>
